# xmcd
#
# Track frame offsets: 
#        150
#        25345
#        42132
#        64362
#        84040
#        94540
#        110712
#        126727
#        145435
#
# Disc length: 2284 seconds
#
# Revision: 1
# Processed by: cddbd v1.5.2PL0 Copyright (c) Steve Scherf et al.
# Submitted via: ExactAudioCopyFreeDBPlugin 1.0
#
DISCID=7d08ea09
DTITLE=Shri - See Shri Plays The Blues CD2
DYEAR=1999
DGENRE=Blues
TTITLE0=Fame
TTITLE1=Girl Of Action
TTITLE2=Spite
TTITLE3=All Of Your Love
TTITLE4=Ain't Left Me Yet
TTITLE5=18 Wheeler Truck
TTITLE6=Its Not fair
TTITLE7=Blues Is Alright
TTITLE8=I Love You
EXTD=YEAR: 1999
EXTT0=
EXTT1=
EXTT2=
EXTT3=
EXTT4=
EXTT5=
EXTT6=
EXTT7=
EXTT8=
PLAYORDER=
